<svg fill="none" height="48" viewBox="0 0 48 48" width="48" xmlns="http://www.w3.org/2000/svg">
    <path
        d="M36.7144 25.4569C36.7796 32.5069 42.8996 34.8532 42.9671 34.8832C42.9154 35.0482 41.9895 38.2267 39.7432 41.5091C37.8015 44.3471 35.7859 47.1746 32.6115 47.2339C29.4922 47.2909 28.4891 45.3836 24.9225 45.3836C21.357 45.3836 20.2429 47.1746 17.2897 47.2909C14.2252 47.4071 11.8916 44.2215 9.93375 41.3944C5.93325 35.6104 2.87587 25.05 6.981 17.9216C9.02025 14.3816 12.6652 12.1402 16.6211 12.0825C19.6301 12.0251 22.4704 14.1067 24.3097 14.1067C26.148 14.1067 29.5995 11.6032 33.228 11.9707C34.7471 12.0341 39.0109 12.5842 41.7487 16.5922C41.5286 16.7291 36.6615 19.5626 36.7144 25.4569ZM30.852 8.14462C32.4787 6.17549 33.5737 3.43349 33.2752 0.706116C30.93 0.800241 28.0942 2.26874 26.4124 4.23712C24.9049 5.97974 23.5849 8.76974 23.9407 11.4431C26.5549 11.6456 29.2249 10.1149 30.852 8.14462Z"
        fill="black" />
</svg>
