<svg fill="none" height="50" viewBox="0 0 48 50" width="48" xmlns="http://www.w3.org/2000/svg">
    <path
        d="M47.977 25.0221C47.977 23.0095 47.8137 21.5408 47.4603 20.0177H24.478V29.1017H37.9681C37.6962 31.3592 36.2275 34.759 32.9637 37.0435L32.918 37.3476L40.1845 42.9769L40.688 43.0271C45.3115 38.757 47.977 32.4743 47.977 25.0221Z"
        fill="#4285F4" />
    <path
        d="M24.478 48.9563C31.087 48.9563 36.6353 46.7803 40.688 43.0271L32.9637 37.0435C30.8967 38.485 28.1225 39.4913 24.478 39.4913C18.005 39.4913 12.511 35.2213 10.5526 29.3194L10.2655 29.3438L2.70965 35.1913L2.61084 35.466C6.63609 43.4621 14.9043 48.9563 24.478 48.9563Z"
        fill="#34A853" />
    <path
        d="M10.5527 29.3193C10.0359 27.7963 9.73687 26.1643 9.73687 24.4781C9.73687 22.7917 10.0359 21.1599 10.5255 19.6368L10.5118 19.3125L2.86125 13.371L2.61094 13.49C0.951938 16.8082 0 20.5344 0 24.4781C0 28.4218 0.951938 32.1478 2.61094 35.466L10.5527 29.3193Z"
        fill="#FBBC05" />
    <path
        d="M24.478 9.46481C29.0744 9.46481 32.1749 11.4502 33.9428 13.1094L40.8511 6.36431C36.6083 2.42062 31.087 0 24.478 0C14.9043 0 6.63609 5.49394 2.61084 13.4901L10.5254 19.6369C12.511 13.7349 18.005 9.46481 24.478 9.46481Z"
        fill="#EB4335" />
</svg>
